<?xml version="1.0" encoding="utf-8"?>
<!-- Generator: Adobe Illustrator 24.2.2, SVG Export Plug-In . SVG Version: 6.00 Build 0)  -->
<svg version="1.1" id="Layer_1" xmlns="http://www.w3.org/2000/svg" xmlns:xlink="http://www.w3.org/1999/xlink" x="0px" y="0px"
	 viewBox="0 0 100 100" style="enable-background:new 0 0 100 100;" xml:space="preserve">
<style type="text/css">
	.st0{fill:#231F20;}
</style>
<path class="st0" d="M93.3,26.1c-4.5-7.7-10.5-13.7-18.2-18.2S59.1,1.2,50,1.2S32.6,3.4,24.9,7.9S11.2,18.4,6.7,26.1S0,42.1,0,51.2
	c0,10.9,3.2,20.7,9.5,29.4c6.4,8.7,14.6,14.7,24.6,18.1c1.2,0.2,2,0.1,2.6-0.5c0.6-0.5,0.8-1.2,0.8-2c0-0.1,0-1.3,0-3.5s0-4.1,0-5.8
	l-1.4,0.3c-1,0.2-2.2,0.2-3.6,0.2c-1.5,0-3-0.2-4.5-0.5c-1.6-0.3-3-0.9-4.4-2c-1.3-1-2.3-2.4-2.9-4L20,79.4c-0.4-1-1.1-2.1-2.1-3.3
	c-0.9-1.2-1.9-2-2.8-2.5l-0.5-0.3c-0.3-0.2-0.6-0.5-0.8-0.8c-0.3-0.3-0.5-0.6-0.6-0.9s0-0.6,0.3-0.7c0.3-0.2,1-0.3,1.9-0.3l1.3,0.2
	c0.9,0.2,1.9,0.7,3.2,1.6c1.3,0.9,2.3,2,3.2,3.4c1,1.8,2.2,3.1,3.6,4.1c1.4,0.9,2.8,1.4,4.3,1.4c1.4,0,2.7-0.1,3.7-0.3
	c1-0.2,2-0.5,2.9-1c0.4-2.9,1.5-5.1,3.2-6.7c-2.5-0.3-4.7-0.7-6.7-1.2s-4-1.4-6.1-2.5c-2.1-1.2-3.9-2.6-5.2-4.4
	c-1.4-1.7-2.5-4-3.4-6.8s-1.3-6.1-1.3-9.8c0-5.3,1.7-9.7,5.1-13.4c-1.6-3.9-1.5-8.4,0.5-13.3c1.3-0.4,3.1-0.1,5.6,0.9
	s4.3,1.8,5.4,2.5c1.2,0.7,2.1,1.3,2.8,1.8c4-1.1,8.2-1.7,12.5-1.7s8.5,0.6,12.5,1.7l2.5-1.6c1.7-1,3.7-2,6-2.9s4.1-1.1,5.3-0.7
	c2,4.9,2.1,9.3,0.5,13.3c3.4,3.7,5.1,8.2,5.1,13.4c0,3.7-0.4,7-1.3,9.8c-0.9,2.8-2,5.1-3.4,6.8c-1.4,1.7-3.2,3.2-5.3,4.3
	c-2.1,1.2-4.1,2-6.1,2.5c-2,0.5-4.2,0.9-6.7,1.2c2.3,2,3.4,5,3.4,9.2v13.8c0,0.8,0.3,1.4,0.8,2c0.5,0.5,1.4,0.7,2.6,0.5
	c10.1-3.3,18.3-9.4,24.6-18.1c6.4-8.7,9.5-18.5,9.5-29.4C100,42.1,97.8,33.8,93.3,26.1z"/>
</svg>
