<?xml version="1.0" encoding="utf-8"?>
<!-- Generator: Adobe Illustrator 24.2.2, SVG Export Plug-In . SVG Version: 6.00 Build 0)  -->
<svg version="1.1" id="Layer_1" xmlns="http://www.w3.org/2000/svg" xmlns:xlink="http://www.w3.org/1999/xlink" x="0px" y="0px"
	 viewBox="0 0 100 100" style="enable-background:new 0 0 100 100;" xml:space="preserve">
<style type="text/css">
	.st0{fill:#FF0558;}
</style>
<g>
	<path class="st0" d="M97.5,0.1c-0.2,1.6-0.4,3.1-0.7,4.6C95.5,12.8,94,21,92.7,29.1c-0.8,4.8-1.5,9.6-2.3,14.4
		c-1.3,7.9-2.7,15.8-4,23.7c-1.1,6.8-2.3,13.7-3.4,20.5c-0.2,1.2-0.3,2.4-0.6,3.5c-0.1,0.5-0.8,1-1.3,1.1
		c-6.9,0.9-13.8,1.7-20.8,2.6c-1,0.1-1.4-0.2-1.6-1.1c-1.1-6.2-2.2-12.5-3.3-18.7c-0.8-4.5-1.6-9-2.4-13.5c-0.4-2.4-0.8-4.8-1.2-7.2
		c-0.1-0.5-0.6-0.8-1-1.2C50.4,53.6,50,54,50,54.5c-0.9,6.6-1.8,13.1-2.6,19.7c-0.8,6.6-1.6,13.3-2.5,19.9c0,0.3-0.1,0.6-0.1,0.9
		c-0.1,1.3-0.5,2-2.1,2.1c-7.9,0.8-15.8,1.9-23.7,2.9c-1.1,0.2-1.7-0.1-1.9-1.2c-1.1-6-2.2-11.9-3.4-17.9c-0.8-4.2-1.6-8.3-2.4-12.4
		c-2-10.3-4-20.6-5.9-31c-0.8-4.1-1.6-8.2-2.4-12.3c0-0.1-0.1-0.3-0.1-0.4c-0.5-2.5-0.4-2.6,2.2-2.6c6.6,0,13.2,0,19.8,0
		c1.3,0,1.9,0.5,2,1.7c0.7,4.9,1.3,9.8,2.1,14.7c0.8,5.3,1.6,10.5,2.4,15.8c0.7,4.7,1.4,9.5,2.1,14.2c0.1,0.4,0.5,0.7,0.7,1.1
		c0.3-0.4,0.8-0.7,0.9-1.1c1.3-8,2.6-15.9,3.8-23.9c0.8-5.3,1.6-10.5,2.3-15.8c0.3-1.7,0.6-3.4,0.8-5.2c0.1-1,0.6-1.4,1.5-1.4
		c4.4,0,8.9,0,13.3,0c1,0,1.4,0.5,1.6,1.4c1.4,6.7,2.8,13.4,4.3,20.1c1.6,7.5,3.3,15.1,5,22.6c0.1,0.4,0.4,0.6,0.6,1
		c0.2-0.4,0.5-0.7,0.5-1.1c0.3-4.7,0.6-9.4,1-14c0.7-10.6,1.5-21.2,2.3-31.8c0.4-5.9,0.7-11.7,1.1-17.6C73.2,0,73.1,0,75.8,0
		C82.4,0,89,0,95.6,0C96.1,0,96.7,0,97.5,0.1z"/>
</g>
</svg>
