<?xml version="1.0" encoding="utf-8"?>
<!-- Generator: Adobe Illustrator 24.2.2, SVG Export Plug-In . SVG Version: 6.00 Build 0)  -->
<svg version="1.1" id="Layer_1" xmlns="http://www.w3.org/2000/svg" xmlns:xlink="http://www.w3.org/1999/xlink" x="0px" y="0px"
	 viewBox="0 0 100 100" style="enable-background:new 0 0 100 100;" xml:space="preserve">
<style type="text/css">
	.st0{fill:#231F20;}
</style>
<path class="st0" d="M50,0C22.4,0,0,22.4,0,50s22.4,50,50,50s50-22.4,50-50S77.6,0,50,0z M81.8,17.8c-0.9,5.7-2,11.6-2.9,17.3
	c-0.6,3.4-1.1,6.8-1.6,10.2c-0.9,5.6-1.9,11.2-2.8,16.8c-0.8,4.8-1.6,9.7-2.4,14.6c-0.1,0.9-0.2,1.7-0.4,2.5
	c-0.1,0.4-0.6,0.7-0.9,0.8c-4.9,0.6-9.8,1.2-14.8,1.8c-0.7,0.1-1-0.1-1.1-0.8c-0.8-4.4-1.6-8.9-2.3-13.3c-0.6-3.2-1.1-6.4-1.7-9.6
	c-0.3-1.7-0.6-3.4-0.9-5.1c-0.1-0.4-0.4-0.6-0.7-0.9c-0.3,0.3-0.6,0.6-0.6,0.9c-0.6,4.7-1.3,9.3-1.8,14c-0.6,4.7-1.1,9.4-1.8,14.1
	c0,0.2-0.1,0.4-0.1,0.6c-0.1,0.9-0.4,1.4-1.5,1.5c-5.6,0.6-11.2,1.3-16.8,2.1c-0.8,0.1-1.2-0.1-1.3-0.9c-0.8-4.3-1.6-8.4-2.4-12.7
	c-0.6-3-1.1-5.9-1.7-8.8c-1.4-7.3-2.8-14.6-4.2-22c-0.6-2.9-1.1-5.8-1.7-8.7c0-0.1-0.1-0.2-0.1-0.3c-0.4-1.8-0.3-1.8,1.6-1.8
	c4.7,0,9.4,0,14.1,0c0.9,0,1.3,0.4,1.4,1.2c0.5,3.5,0.9,7,1.5,10.4c0.6,3.8,1.1,7.5,1.7,11.2c0.5,3.3,1,6.7,1.5,10.1
	c0.1,0.3,0.4,0.5,0.5,0.8c0.2-0.3,0.6-0.5,0.6-0.8c0.9-5.7,1.8-11.3,2.7-17c0.6-3.8,1.1-7.5,1.6-11.2c0.2-1.2,0.4-2.4,0.6-3.7
	c0.1-0.7,0.4-1,1.1-1c3.1,0,6.3,0,9.4,0c0.7,0,1,0.4,1.1,1c1,4.8,2,9.5,3.1,14.3c1.1,5.3,2.3,10.7,3.5,16c0.1,0.3,0.3,0.4,0.4,0.7
	c0.1-0.3,0.4-0.5,0.4-0.8c0.2-3.3,0.4-6.7,0.7-9.9c0.5-7.5,1.1-15,1.6-22.6c0.3-4.2,0.5-8.3,0.8-12.5c0-2.1-0.1-2.1,1.8-2.1
	c4.7,0,9.4,0,14.1,0c0.4,0,0.8,0,1.3,0.1C82.1,15.7,82,16.8,81.8,17.8z"/>
</svg>
